<svg width="16" height="16" viewBox="0 0 16 16" fill="none" xmlns="http://www.w3.org/2000/svg">
<g id="arrow-small-down 4">
<path id="Vector" d="M11.8067 8.47331C11.7447 8.41083 11.671 8.36123 11.5897 8.32739C11.5085 8.29354 11.4214 8.27611 11.3333 8.27611C11.2453 8.27611 11.1582 8.29354 11.077 8.32739C10.9957 8.36123 10.922 8.41083 10.86 8.47331L8.66668 10.6666V3.99998C8.66668 3.82317 8.59644 3.6536 8.47141 3.52858C8.34639 3.40355 8.17682 3.33331 8.00001 3.33331C7.8232 3.33331 7.65363 3.40355 7.5286 3.52858C7.40358 3.6536 7.33334 3.82317 7.33334 3.99998V10.6666L5.14001 8.47331C5.07803 8.41083 5.0043 8.36123 4.92306 8.32739C4.84182 8.29354 4.75468 8.27611 4.66668 8.27611C4.57867 8.27611 4.49153 8.29354 4.41029 8.32739C4.32905 8.36123 4.25532 8.41083 4.19334 8.47331C4.06918 8.59822 3.99948 8.76719 3.99948 8.94331C3.99948 9.11944 4.06918 9.2884 4.19334 9.41331L7.06001 12.2733C7.30891 12.5237 7.64696 12.6652 8.00001 12.6666C8.35075 12.6634 8.68608 12.5221 8.93334 12.2733L11.8 9.41331C11.9251 9.28929 11.996 9.12081 11.9972 8.94469C11.9985 8.76856 11.93 8.5991 11.8067 8.47331Z" fill="#C44141"/>
</g>
</svg>
