<svg width="16" height="16" viewBox="0 0 16 16" fill="none" xmlns="http://www.w3.org/2000/svg">
<g id="arrow-small-down 5">
<path id="Vector" d="M4.19333 7.52666C4.2553 7.58914 4.32903 7.63874 4.41027 7.67258C4.49151 7.70643 4.57865 7.72386 4.66666 7.72386C4.75467 7.72386 4.8418 7.70643 4.92304 7.67258C5.00428 7.63874 5.07801 7.58914 5.13999 7.52666L7.33332 5.33332L7.33332 12C7.33332 12.1768 7.40356 12.3464 7.52859 12.4714C7.65361 12.5964 7.82318 12.6667 7.99999 12.6667C8.1768 12.6667 8.34637 12.5964 8.4714 12.4714C8.59642 12.3464 8.66666 12.1768 8.66666 12V5.33332L10.86 7.52666C10.922 7.58914 10.9957 7.63874 11.0769 7.67258C11.1582 7.70643 11.2453 7.72386 11.3333 7.72386C11.4213 7.72386 11.5085 7.70643 11.5897 7.67258C11.6709 7.63874 11.7447 7.58914 11.8067 7.52666C11.9308 7.40175 12.0005 7.23278 12.0005 7.05666C12.0005 6.88053 11.9308 6.71156 11.8067 6.58666L8.93999 3.72666C8.69109 3.47626 8.35304 3.33481 7.99999 3.33332C7.64925 3.33657 7.31392 3.47789 7.06666 3.72666L4.19999 6.58666C4.07493 6.71068 4.00404 6.87916 4.00279 7.05528C4.00154 7.23141 4.07004 7.40087 4.19333 7.52666Z" fill="#2DDA3F"/>
</g>
</svg>
